<?xml version="1.0" encoding="utf-8"?>
<!-- Generator: Adobe Illustrator 22.0.1, SVG Export Plug-In . SVG Version: 6.00 Build 0)  -->
<svg version="1.1" id="Calque_1" xmlns="http://www.w3.org/2000/svg" xmlns:xlink="http://www.w3.org/1999/xlink" x="0px" y="0px"
	 viewBox="0 0 432 432" style="enable-background:new 0 0 432 432;" xml:space="preserve">
<style type="text/css">
	.st0{fill:#B3A6AD;}
	.st1{fill:#B6B155;}
	.st2{fill:#990033;}
	.st3{fill:#660A1E;}
	.st4{fill:#A7A6AA;}
	.st5{fill:#EF798A;}
	.st6{fill:#FFB2B2;}
	.st7{fill:#A70808;}
	.st8{fill:#DF4646;}
	.st9{fill:#FF7878;}
	.st10{fill:#F2A297;}
	.st11{fill:#BA1717;}
	.st12{fill:#543A3C;}
	.st13{fill:#CA1542;}
	.st14{fill:#E74C6E;}
	.st15{fill:#006837;}
	.st16{fill:#004924;}
	.st17{fill:#D33757;}
	.st18{fill:#E06581;}
	.st19{fill:#014724;}
	.st20{fill:#E14666;}
	.st21{fill:#ABDFD3;}
	.st22{fill:#C5EFE4;}
	.st23{fill:#DC4160;}
	.st24{fill:#A888AD;}
	.st25{fill:#B99BBF;}
	.st26{fill:#F8A362;}
	.st27{fill:#F9B587;}
	.st28{fill:#F2F2F2;}
	.st29{fill:#FDFFFE;}
	.st30{fill:#F2D668;}
	.st31{fill:#F9E4A5;}
	.st32{fill:#F5A6DF;}
	.st33{fill:#F4CEEB;}
	.st34{fill:#CCCCCC;}
	.st35{fill:#FBB03B;}
	.st36{fill:#FFFFFF;}
	.st37{fill:#ECCDD2;}
	.st38{fill:#8AD7AB;}
	.st39{fill:#8FC8E2;}
	.st40{fill:#D3CE94;}
	.st41{fill:#F9CFCF;}
	.st42{fill:#EDE9C3;}
	.st43{fill:#9BD6EA;}
	.st44{fill:#F8D9C4;}
	.st45{fill:#EB678B;}
	.st46{fill:#A5394C;}
	.st47{fill:#DD726C;}
	.st48{fill:#E5847A;}
	.st49{fill:#EF8A7F;}
	.st50{fill:#3CBC91;}
	.st51{fill:#8CC63F;}
	.st52{fill:#B78D5C;}
	.st53{fill:#2A2A2B;}
	.st54{fill:#EBCEC6;}
	.st55{fill:#F49090;}
	.st56{fill:#B3D8E8;}
	.st57{fill:#EFE6E4;}
	.st58{fill:#FBD8E3;}
	.st59{fill:#E48397;}
	.st60{fill:#B2E6F9;}
	.st61{fill:#42210B;}
	.st62{fill:#E0E0E0;}
	.st63{fill:#9D6D47;}
	.st64{fill:#EFD1B4;}
	.st65{fill:#0071BC;}
	.st66{fill:#679CBA;}
	.st67{fill:#DBDCDD;}
	.st68{fill:#DDB28E;}
	.st69{fill:#C69C6D;}
	.st70{fill:#603813;}
	.st71{fill:#8C6239;}
	.st72{fill:#E9EAE4;}
	.st73{fill:#F7931E;}
	.st74{fill:#754C24;}
	.st75{fill:#A67C52;}
	.st76{fill:#9E1E28;}
	.st77{fill:#F15A24;}
	.st78{fill:#E04819;}
	.st79{fill:#009245;}
	.st80{fill:#00552B;}
	.st81{fill:#84821B;}
	.st82{fill:#CD271F;}
	.st83{fill:#BB8130;}
	.st84{fill:#BBBABF;}
	.st85{fill:#E0E0E2;}
	.st86{fill:#C79359;}
	.st87{fill:#BA844F;}
	.st88{fill:#29ABE2;}
	.st89{fill:#EEB752;}
	.st90{fill:#A8B0B2;}
	.st91{fill:#035684;}
	.st92{fill:#EFBF73;}
	.st93{fill:#D3A272;}
	.st94{fill:#C3C8C9;}
	.st95{fill:#EBDCC9;}
	.st96{fill:#EAD696;}
	.st97{fill:#E57ACC;}
	.st98{fill:#8D5F96;}
	.st99{fill:#FFD9E4;}
	.st100{fill:#60BA84;}
	.st101{fill:#CCEDE5;}
	.st102{fill:#E8E8E8;}
	.st103{fill:#F9D2D2;}
	.st104{fill:#B9B9BA;}
	.st105{fill:#939393;}
	.st106{fill:#62612A;}
	.st107{fill:#79484E;}
	.st108{fill:#C2BE5C;}
	.st109{fill:#F1C3A2;}
	.st110{fill:#B2625C;}
	.st111{fill:#E1AE9D;}
	.st112{fill:#7597A0;}
	.st113{fill:#F2DBD5;}
	.st114{fill:#B27C62;}
	.st115{fill:#E6E6E6;}
	.st116{fill:#AF8864;}
	.st117{fill:#F1E9DF;}
	.st118{fill:#9E6A56;}
	.st119{fill:#2E3192;}
	.st120{fill:#EAEAEA;}
	.st121{fill:#1B1464;}
	.st122{fill:#EAE5E6;}
	.st123{fill:#7F9BEA;}
	.st124{fill:#EEBCC5;}
	.st125{fill:#DB8E98;}
	.st126{fill:#B58187;}
	.st127{fill:#80424C;}
	.st128{fill:#F3EED0;}
	.st129{fill:#CCD8B0;}
	.st130{fill:#46653B;}
	.st131{fill:#345129;}
	.st132{fill:#C9A6AC;}
	.st133{fill:#D6B6BA;}
	.st134{fill:#DE7139;}
	.st135{fill:#F2CB56;}
	.st136{fill:#DE3A55;}
	.st137{fill:#CD9586;}
	.st138{fill:#B47468;}
	.st139{fill:#F5DCD8;}
	.st140{fill:#C4BCBF;}
	.st141{fill:#E0B182;}
	.st142{fill:#9B6B61;}
	.st143{fill:#DBB89B;}
	.st144{fill:#DED2D3;}
	.st145{fill:#7D6364;}
	.st146{fill:#F1A3A1;}
	.st147{fill:#B3B3B3;}
	.st148{fill:#F9CEBE;}
	.st149{fill:#142738;}
	.st150{fill:#911928;}
	.st151{fill:#A32F4E;}
	.st152{fill:#7A0118;}
	.st153{fill:#DAE576;}
	.st154{fill:#E87F38;}
	.st155{fill:#F47621;}
	.st156{fill:#BC5B1B;}
	.st157{fill:#E6EF6A;}
	.st158{fill:#7C0101;}
	.st159{fill:#6DA84A;}
	.st160{fill:#83AF6E;}
	.st161{fill:#39B54A;}
	.st162{fill:#812791;}
	.st163{fill:#FC540D;}
	.st164{fill:#DD4410;}
	.st165{fill:#D3CE6A;}
	.st166{fill:#F2C8AD;}
	.st167{fill:#EFB58E;}
	.st168{fill:#F27622;}
	.st169{fill:#8DA34F;}
	.st170{fill:#ACBF77;}
	.st171{fill:#D6C188;}
	.st172{fill:#E5CED4;}
	.st173{fill:#15104F;}
	.st174{fill:#E5E3E3;}
</style>
<g>
	<path class="st59" d="M367.4,246.3c0.2,0.2,0.4,0.4,0.6,0.5c6,5,8.9,11.4,8.6,19.2c0,1.7-0.3,3.4-1.1,5c-0.4,0.8-1,1.5-1.7,2.1
		c-1.2,1-2.5,0.7-3.5-0.4c-0.3-0.3-0.5-0.7-0.7-1.1c-1.4-2.6-2.7-5.2-4-7.9c-1.2-2.5-2.1-5-2.4-7.8c0-0.2-0.1-0.4-0.2-0.8
		c-7.9,13.7-18.9,24.4-31.2,33.9c0.4,0,0.8,0,1.2-0.1c2.1-0.1,4.1-0.3,6.2-0.4c1,0,1.9,0.1,2.9,0.3c5.8,1.2,9,5,10.3,10.6
		c0.4,1.9,0.6,3.8,0,5.7c-0.3,0.8-0.6,1.6-1.1,2.3c-0.8,1.1-2.1,1.5-3.4,1c-0.5-0.2-1-0.4-1.5-0.7c-2.7-1.7-5.4-3.4-8.1-5.1
		c-2.1-1.4-4-3-5.8-4.8c-0.2-0.2-0.4-0.4-0.8-0.8c0.3,1.6,0.6,2.9,0.9,4.3c1.1,5.3,1.5,10.7,1.3,16.1c-0.2,4.4-0.7,8.8-2.2,12.9
		c-2,5.3-5.5,9.1-10.5,11.5c-1.1,0.5-2.3,0.8-3.4,1.1c-2,0.4-3.2-0.4-3.7-2.4c-0.5-2.2-0.9-4.4-1.3-6.7c-0.6-3.7-0.8-7.4-0.5-11.2
		c0.8-9.2,3.4-17.9,8.6-25.6c0.2-0.4,0.5-0.7,0.7-1.2c-17.2,9.9-35.5,15.4-55.6,15.5c0.5,0.2,0.8,0.3,1.1,0.4
		c4.4,1.3,8.6,2.9,12.6,5.3c2.6,1.5,4.9,3.3,6.8,5.6c1.3,1.6,2.2,3.5,2.5,5.6c0.5,3.9-1.4,7.6-4.9,9.4c-2.4,1.3-5,1.9-7.7,2.1
		c-4.9,0.4-9.7-0.4-14.5-1.3c-1.9-0.4-3.7-0.8-5.6-1.3c-5-1.3-9.5-3.7-13.7-6.9c-0.8-0.6-1.6-1.4-2.5-2.2c0.1,0.8,0.2,1.4,0.3,1.9
		c1.3,6.7,1.2,13.4-0.2,20.1c-0.5,2.7-1.2,5.3-2.2,7.8c-0.8,1.8-1.7,3.5-2.9,5.1c-1.7,2.1-3.8,3.6-6.6,4.2c-2.3,0.5-4.3-0.1-6.1-1.5
		c-1.3-1.1-2.4-2.4-3.4-3.9c-2-3.2-3.2-6.6-3.7-10.4c-1-6.9-0.3-13.7,1.8-20.3c0.1-0.2,0.1-0.4,0.1-0.8c-0.4,0.3-0.8,0.6-1.1,0.9
		c-4,3.1-8.4,5.4-13.3,6.8c-3.6,1-7.3,1.6-11.1,1.5c-3.2-0.1-6.3-0.7-9.3-2c-0.8-0.4-1.7-0.8-2.4-1.4c-5.2-3.6-5.5-9.9-2.6-14.3
		c1.2-1.7,2.6-3.2,4.2-4.5c3.4-2.7,7.2-4.7,11.4-6.1c3.7-1.2,7.6-2,11.5-2.6c0.3,0,0.6-0.1,0.9-0.1c0.2,0,0.3-0.1,0.6-0.1
		c-0.2-0.1-0.2-0.3-0.3-0.3c-5.9-2.6-10.6-6.8-14.8-11.6c-3.2-3.6-5.9-7.4-8-11.7c-1.4-2.7-2.3-5.6-2.6-8.7
		c-0.2-2.1,0.2-4.2,1.1-6.1c1.4-2.8,3.9-4,6.8-4.6c2.7-0.5,5.3,0,7.8,1.1c3.1,1.3,5.8,3.1,8.4,5.2c6.3,5.4,11.9,11.4,16.9,18
		c0.3,0.3,0.5,0.6,0.9,1.1c-0.3-2.1-0.6-3.9-0.8-5.8c-1-8-0.4-15.9,2.5-23.6c0.8-2.1,1.8-4.1,3.2-5.9c1.1-1.4,2.4-2.6,4-3.3
		c2.6-1.2,5.1-0.9,7.3,0.9c1.3,1,2.2,2.3,3,3.7c1.7,3.1,2.7,6.4,3.2,9.8c1.3,8,1.1,15.9-0.8,23.7c0,0.1,0,0.3,0,0.6
		c0.4-0.3,0.7-0.5,1-0.8c6.3-4.8,13-8.9,20.4-11.6c3.8-1.4,7.6-2.6,11.6-3c2.4-0.3,4.8-0.3,7.2,0.3c0.9,0.2,1.7,0.5,2.5,0.9
		c3.2,1.7,4.5,4.9,3.6,8.4c-0.5,2-1.6,3.7-2.9,5.3c-2.1,2.5-4.5,4.6-7.2,6.4c-6.6,4.4-13.4,8.1-20.8,11c-0.2,0.1-0.5,0.2-0.7,0.4
		c13.7,1.4,27-0.7,40-4.9c9-2.9,17.4-7.2,25.6-12.4c-1.4-0.7-2.5-1.2-3.7-1.8c-6.9-3.3-12.2-8.4-15.8-15.2c-2-3.9-3.9-7.8-5.8-11.7
		c-0.1-0.2-0.2-0.5-0.3-0.8c-0.4-1.3,0.1-2.4,1.4-2.9c1.1-0.4,2.3-0.5,3.5-0.4c2.9,0.3,5.7,1.1,8.4,2.4c6.8,3.3,11.9,8.4,15.3,15.2
		c0.5,0.9,0.8,1.9,1.2,3c0.1-0.3,0.3-0.5,0.3-0.8c1.3-4.5,3.3-8.7,5.1-13c0.1-0.2,0.2-0.4,0.3-0.5c1-1.7,2.7-1.8,3.9-0.3
		c0.9,1.1,1.2,2.5,1.4,3.9c0.5,2.8,0.1,5.4-1,8c-0.8,1.9-1.9,3.7-2.9,5.6c-0.2,0.3-0.4,0.6-0.5,1c5.3-4.1,10.2-8.6,14.6-13.6
		c4.4-5,8.4-10.3,11.7-16.4c-0.4,0.1-0.6,0.1-0.8,0.2c-2.2,0.7-4.5,1.1-6.8,1.1c-1.7,0-3.5-0.1-5.2-0.2c-0.3,0-0.7-0.1-1-0.2
		c-1.5-0.5-2.2-1.7-1.8-3.3c0.3-1.2,1-2.2,1.8-3.1c2.1-2.1,4.7-3.3,7.5-4c3.2-0.7,6.3-0.5,9.3,0.6c0.3,0.1,0.6,0.2,1,0.3
		c0.1-0.4,0.3-0.7,0.4-1.1c2.2-6,3.3-12.2,2.9-18.6c-0.3-5.1-1.5-10-4.2-14.5c-1.1-1.8-2.3-3.5-3.9-4.9c-4.4-3.9-9.5-5-15.1-3.6
		c-8.1,2.1-13.4,7.3-15.6,15.3c-1.2,4.4-0.5,8.7,2.1,12.5c2.3,3.4,5.3,6,9.4,7.1c3.6,0.9,6.7,0.1,9.4-2.6c2.7-2.7,4.4-5.9,5-9.7
		c0.2-1.3,0.2-2.6-0.3-3.9c-0.2-0.4-0.3-0.8-0.6-1.2c-1.7-2.8-4.9-3.3-7.4-1.1c-1.9,1.7-2.6,3.7-2.1,6.2c0.1,0.4,0.2,0.8,0.2,1.1
		c0,0.5-0.2,0.8-0.7,1c-0.5,0.2-0.9,0-1.2-0.4c-0.3-0.4-0.5-0.9-0.6-1.4c-0.4-1.6-0.4-3.1,0.1-4.7c0.9-2.6,2.7-4.4,5.1-5.5
		c1.4-0.6,2.9-0.7,4.3-0.2c3.4,1.1,5.8,4,6.1,7.5c0.2,3.1-0.6,6-2,8.8c-1.3,2.6-3.1,4.8-5.3,6.6c-3.2,2.6-6.9,3.2-10.9,2.1
		c-7.7-2-13.4-9.9-13.9-16.2c-0.3-3.7,0.2-7.2,1.7-10.5c3.9-8.4,10.4-13.3,19.6-14.4c7.2-0.9,13,2.1,17.4,7.7
		c3.2,4,4.9,8.7,5.8,13.7c1.5,8.7,0.3,17.1-2.8,25.3c-0.1,0.3-0.3,0.7-0.4,1C367.4,246.1,367.4,246.1,367.4,246.3z M222.1,303.4
		c1.1-1.7,1.5-3.4,1.4-5.3c0-0.7-0.2-1.3-0.6-1.8c-1.7-2.2-3.3-4.5-5-6.7c-4.7-5.9-9.9-11.3-15.7-16.1c-2.3-1.9-4.9-3.6-7.8-4.7
		c-1.8-0.7-3.7-1.1-5.7-0.8c-3.7,0.5-5.3,2.1-5.8,5.5c-0.2,1-0.1,2.1,0,3.1c0.3,2.8,1.4,5.4,2.7,7.9c2.7,5.1,6.4,9.6,10.5,13.6
		c2.9,2.9,6.1,5.3,9.8,7.1c2.5,1.2,5.1,2.2,7.8,2.6c3,0.5,5.3-0.8,7.4-2.9c-0.3-0.2-0.4-0.3-0.6-0.5c-5.5-3.9-10.6-8.4-15.1-13.5
		c-0.9-1-1.7-2-2.5-3.1c-0.6-0.8-0.7-1.2-0.3-1.5c0.4-0.4,0.8-0.2,1.6,0.5c0.1,0.1,0.2,0.2,0.3,0.3c1.3,1.3,2.6,2.6,3.8,4
		c4,4.5,8.7,8.3,13.4,11.9C221.8,303.2,221.9,303.2,222.1,303.4z M239.8,316.9c-0.8,2-0.8,4.1-0.7,6.2c0,0.3,0.2,0.6,0.4,0.8
		c3.9,4.2,8.6,7.4,14,9.4c3.3,1.2,6.7,1.9,10.2,2.5c3.8,0.6,7.7,1.1,11.6,0.9c2.4-0.1,4.8-0.5,7-1.6c2.8-1.4,4.1-4.3,3.4-7.3
		c-0.3-1.4-1.1-2.7-2-3.8c-1.7-2-3.7-3.4-5.9-4.7c-5-2.9-10.5-4.8-16.1-6.1c-5.2-1.2-10.6-1.5-15.9-2.2c-1.6-0.2-2.6,0.3-3.5,1.5
		c-0.6,0.8-1.2,1.6-1.7,2.6c1.8,0.9,3.5,1.7,5.3,2.5c5.9,2.5,11.8,5,17.7,7.5c0.2,0.1,0.4,0.1,0.5,0.2c0.4,0.2,0.6,0.5,0.4,1
		c-0.2,0.5-0.6,0.6-1,0.5c-0.3-0.1-0.7-0.2-1-0.3C254.8,323.9,247.2,320.9,239.8,316.9z M221.2,313.2c-0.3-0.2-0.5-0.2-0.7-0.3
		c-1.8-1.3-3.9-1.9-6.1-2.3c-2.3-0.4-4.5,0-6.7,0.3c-3.9,0.6-7.8,1.1-11.6,2.1c-4.6,1.2-8.9,3.1-12.7,6c-1.5,1.2-2.9,2.6-4,4.2
		c-2,3-2,7.5,1.7,10.2c0.7,0.5,1.4,0.9,2.1,1.2c3.1,1.4,6.3,2,9.6,1.9c3,0,5.9-0.5,8.8-1.3c5-1.3,9.4-3.7,13.5-6.7
		c3-2.2,4.9-5.2,6.4-8.6c0.2-0.5,0.3-1,0.4-1.5c0.2-1.1,0.4-2.1,0-3.3c-0.9,0.3-1.8,0.6-2.7,0.9c-4.6,1.6-8.8,3.9-13,6.3
		c-0.8,0.4-1.6,0.9-2.4,1.3c-0.2,0.1-0.5,0.2-0.7,0.4c-0.4,0.2-0.8,0.1-1-0.3c-0.1-0.3-0.1-0.8,0.1-0.9c0.4-0.4,0.9-0.7,1.4-1.1
		c5.2-3.6,10.7-6.4,16.8-8.2C220.7,313.5,220.8,313.5,221.2,313.2z M241.3,302.3c0.3-0.2,0.6-0.4,0.8-0.5c1.4-0.8,2.7-1.8,4.1-2.4
		c4.6-2,9.2-4,13.8-5.9c0.3-0.1,0.6-0.3,0.9-0.3c0.3,0,0.7,0.2,1,0.5c0.3,0.3,0.1,0.8-0.2,1c-0.3,0.2-0.6,0.4-0.9,0.5
		c-4.1,1.8-8.1,3.5-12.2,5.4c-2.1,0.9-4.1,2-6.1,3c-0.3,0.1-0.5,0.4-0.7,0.5c0.3,1,0.8,1.9,1.6,2.5c0.3,0.3,0.7,0.5,1.1,0.5
		c2.1,0,4.2,0.1,6.3-0.1c2.9-0.3,5.8-1.3,8.5-2.4c6.1-2.5,11.8-5.6,17.3-9.1c1.3-0.9,2.6-1.8,3.9-2.8c2-1.6,3.8-3.2,5.2-5.4
		c0.6-1,1.2-2,1.5-3.1c0.6-1.9-0.2-3.7-1.9-4.7c-0.6-0.4-1.3-0.7-1.9-0.8c-1.2-0.2-2.5-0.5-3.7-0.5c-3.7-0.1-7.3,0.8-10.9,1.9
		c-9,2.9-17,7.8-24.5,13.5c-0.8,0.6-1.5,1.2-2.2,1.9c-0.5,0.4-0.7,0.9-0.8,1.5C240.8,298.8,240.8,300.5,241.3,302.3z M228.3,322.5
		c-0.9,0.1-1.6,0.2-2.3,0.3c-1.2,0.1-2.2,0.6-2.8,1.6c-0.8,1.3-1.7,2.5-2.4,3.9c-1.6,3.3-2.4,6.8-2.9,10.4
		c-0.7,5.1-0.7,10.2,0.6,15.2c0.9,3.3,2.3,6.4,4.7,8.8c2,2,4.1,2.3,6.6,1c1.5-0.8,2.8-1.9,3.6-3.4c0.8-1.4,1.6-2.9,2.2-4.4
		c2.1-5.8,2.9-11.9,2.8-18c-0.1-4-0.7-8-1.6-11.9c-0.2-0.8-0.6-1.3-1.2-1.7c-1.2-0.8-2.5-1.4-4-1.6c-0.4-0.1-0.7-0.1-1.2-0.2
		c-0.2,2.9-0.5,5.7-0.5,8.5c0,4.5,0.1,9,0.2,13.4c0,0.3,0.1,0.7-0.1,1c-0.1,0.3-0.5,0.6-0.7,0.6c-0.3,0-0.6-0.3-0.8-0.5
		c-0.2-0.2-0.2-0.6-0.2-0.9c-0.1-0.7-0.1-1.3-0.2-2c-0.7-5.6-0.8-11.3-0.2-16.9C228.1,324.8,228.2,323.8,228.3,322.5z M230.9,297.8
		c0.2-4.9,0.4-9.6,0.7-14.2c0.2-3.2,0.6-6.4,0.9-9.5c0-0.3,0.1-0.6,0.2-0.9c0.1-0.2,0.4-0.4,0.6-0.4c0.2,0,0.5,0.2,0.6,0.4
		c0.1,0.4,0.2,0.8,0.1,1.3c-0.1,2.4-0.3,4.7-0.4,7.1c-0.2,4.4-0.5,8.8-0.7,13.2c0,0.8,0,1.7,0,2.6c2.5-0.4,4.6-1.2,5.9-3.4
		c1.4-2.5,2.4-5.2,2.9-8.1c1-6,1.1-12,0-18c-0.6-3.3-1.4-6.5-3-9.4c-0.7-1.3-1.4-2.4-2.6-3.3c-1.3-1-2.8-1.2-4.3-0.5
		c-1.2,0.5-2.1,1.4-2.9,2.3c-1.3,1.5-2.1,3.2-2.8,5.1c-1.7,4.4-2.6,8.9-2.8,13.5c-0.3,4.5,0.2,9,1,13.5c0.4,2.2,1,4.3,1.6,6.4
		c0.3,1.1,1.2,1.8,2.3,2.1C229.2,297.8,230.1,297.8,230.9,297.8z M316.7,340.1c1.3,0,2.1-0.2,3.3-0.9c4.4-2.2,7.4-5.6,8.9-10.3
		c1.7-5,2.1-10.3,2-15.5c-0.1-3-0.4-6-0.8-8.9c-0.5-3.7-1.2-7.4-2.9-10.8c-0.1-0.2-0.3-0.4-0.5-0.8
		C316,307.2,312.6,322.8,316.7,340.1z M325.8,289.3c0.1-0.3,0.1-0.5,0.2-0.7c0.4-2.8,0.2-5.6-0.6-8.3c-1.3-4.3-3.7-7.9-6.9-11.1
		c-4-4-8.6-6.8-14.1-8c-1.2-0.3-2.3-0.5-3.6-0.2c0.1,0.2,0.1,0.4,0.2,0.6c1.9,3.9,3.7,7.9,5.8,11.7c3.2,5.9,8,10.4,14,13.5
		c1.4,0.7,2.8,1.4,4.2,2.1C325.1,289.1,325.4,289.2,325.8,289.3z M238.3,298.5c-0.2,0.1-0.4,0.1-0.6,0.2c-1.4,0.4-2.8,1-4.2,1.3
		c-2.5,0.6-4.9,0.7-7.3-0.5c-0.1,0-0.2,0-0.4,0c-0.1,2.1-0.9,3.9-2,5.7c-1.1,1.7-2.7,3-4.6,4c0.8,0.4,1.4,0.7,1.9,1
		c2.6,1.5,3.8,3.8,3.6,6.8c-0.1,0.8-0.3,1.7-0.4,2.5c0,0.2,0,0.5-0.1,0.8c1.1-0.2,2.1-0.4,3.1-0.4c1-0.1,2.1-0.1,3.1,0
		c1,0.1,2,0.3,3,0.6c1,0.3,1.9,0.7,3,1.2c0.1-2.6,0.5-4.9,1.5-7.1c1-2.2,2.6-3.9,4.2-5.7C238.8,306.2,238.5,302.4,238.3,298.5z
		 M330.5,291.7c0.2,0.4,0.3,0.5,0.3,0.6c1.2,1.8,2.6,3.4,4.2,4.8c3.8,3.5,8.3,6.1,12.7,8.7c1.1,0.7,1.6,0.5,2-0.8
		c0.4-1.2,0.5-2.3,0.3-3.6c-0.6-4.3-3-9.4-9.9-10.3c-2.4-0.3-4.7,0-7.1,0.2C332.2,291.5,331.4,291.6,330.5,291.7z M366.1,248.6
		c-0.2,0.8-0.4,1.4-0.5,2c-0.6,3.9,0.1,7.7,1.7,11.3c1.3,2.9,2.8,5.6,4.2,8.4c0.1,0.3,0.4,0.5,0.6,0.9c0.9-0.6,1.2-1.5,1.4-2.4
		c0.5-2.3,0.5-4.6,0.1-6.8c-0.7-4.3-2.6-7.9-5.4-11.2C367.7,250,367,249.4,366.1,248.6z M363.8,246.7c-0.1-0.1-0.2-0.2-0.3-0.2
		c-3.1-1-6.2-1.2-9.4-0.3c-2,0.6-3.9,1.5-5.5,3c-0.6,0.6-1.2,1.2-1.2,2.3c0.5,0.1,0.9,0.3,1.4,0.2c2.3,0,4.6,0,6.9-0.2
		c2.6-0.3,5.1-1.2,7.1-3C363.3,248,363.7,247.5,363.8,246.7z M335.5,266.9c-0.3,0.7-0.6,1.3-1,2c-2.4,4.8-4.2,9.9-5.5,15.1
		c-0.2,0.7-0.3,1.4-0.1,2.3c1.3-1.8,2.5-3.4,3.6-5c1.4-2.1,2.5-4.5,3.3-6.9C336.6,271.8,336.5,269.4,335.5,266.9z"/>
	<path class="st7" d="M135.2,175.4c1.7,0.3,2.9,1.2,4.2,2c0.9,0.6,1.8,0.7,2.9,0.4c1.5-0.4,3-0.7,4.5-0.8c2.6-0.2,5.1,0.5,7.4,1.7
		c5.2,2.7,8.6,7,10.7,12.3c1.4,3.5,1.9,7,1.9,10.7c0,3.9,0,7.8,0,11.7c0,2,0.2,4,0.1,6c0,1.2-0.2,2.5-0.4,3.7c-0.3,2-1.5,3.4-3.5,4
		c-1.1,0.3-2.2,0.6-3.2,1c-0.6,0.2-1.2,0.4-1.9,0.7c0.3,0.7,0.5,1.3,0.8,1.9c0.8,2,1.4,4,1.2,6.1c-0.2,1.6-0.5,3.2-1,4.8
		c-1,3.2-2.4,6.3-4.1,9.3c-1.2,2.2-2.7,4.2-4.7,5.7c-0.9,0.7-1.8,1.2-2.8,1.7c-2,0.9-4.1,0.9-6.1,0.1c-0.4-0.1-0.7-0.3-1.2-0.4
		c-0.1,0.1-0.1,0.2-0.2,0.3c-1.8,3.1-4.6,4.6-8.1,5.2c-3.3,0.6-6.5,0.3-9.7-0.4c-3.5-0.7-6.9-1.4-10.5-1.5c-1,0-2.1,0-3.3,0
		c0.2,0.3,0.3,0.5,0.5,0.7c8.9,11.7,14.6,24.9,17.5,39.3c0.9,4.3,1.3,8.7,1,13.1c-0.4,5.1-1.5,9.9-3.8,14.5c-0.5,1-1.1,2-1.8,2.8
		c-1.5,1.8-3.2,1.7-4.8,0c-0.1-0.1-0.3-0.3-0.4-0.4c-3.4-4.9-6.8-9.7-9.5-15.1c-2.4-5-3.9-10.3-4.9-15.8c-1.1-6.3-1.6-12.6-1.4-18.9
		c0.1-2.9,0.5-5.7,0.7-8.7c-0.2,0.2-0.3,0.4-0.4,0.6c-7.1,14-16.2,26.7-26.9,38.1c-3.7,3.9-7.4,7.8-11.1,11.7
		c-0.5,0.5-1,1.1-1.6,1.5c-1.5,1-2.9,0.7-3.9-0.7c-1-1.5-1.4-3.1-1.6-4.8c-1-7.8,0.3-15.3,3.9-22.3c5.4-10.5,13.1-18.9,23-25.2
		c6-3.8,12.3-7,18.8-9.9c0.3-0.2,0.7-0.3,1-0.7c-0.4-0.1-0.9-0.1-1.3-0.2c-2.3-0.2-4.5-0.7-6.6-1.7c-0.8-0.4-1.5-0.8-2.2-1.3
		c-2.4-1.8-3.4-4.2-2.9-7.1c0.1-0.7,0.2-1.3,0.3-2c0.1-0.4,0.1-0.8,0.1-1.4c-0.4-0.1-0.6-0.1-0.9-0.1c-0.7-0.1-1.3-0.1-2-0.2
		c-2.9-0.5-5-2.1-6-4.9c-0.8-2.6-1.5-5.2-2.1-7.8c-0.2-0.8-0.5-1.2-1.2-1.6c-2.4-1.1-4.2-2.9-5.7-5.1c-2.7-4.2-4.5-8.8-5.3-13.7
		c-0.6-3.8-0.2-7.7,0.1-11.5c0.5-5.4,2.1-10.5,3.7-15.7c1-3.4,2-6.8,3-10.2c0.5-1.7,1.1-3.3,2.2-4.6c0.5-0.6,1.1-1.2,1.7-1.7
		c0.9-0.7,1.9-1,3.1-0.6c2.2,0.6,4.3,1.3,6.5,1.8c1,0.3,2,0.4,3,0.6c0.6,0.1,1-0.1,1.3-0.7c0.5-0.9,1-1.7,1.6-2.5
		c1-1.3,2.3-2.1,3.9-2.2c3.5-0.3,7.1-0.6,10.6-0.7c2.8-0.1,5.6,0.1,8.4,0.2c1.3,0.1,2.5,0.4,3.9,0.7c-0.1-0.2-0.1-0.3-0.2-0.4
		c-5.1-6.7-8.4-14.2-10.8-22.3c-1-3.4-2.1-6.7-3.1-10c-0.2-0.6-0.4-1.3-0.5-1.9c-0.3-2,1-3.3,2.9-3c1.3,0.2,2.5,0.7,3.7,1.4
		c3.1,1.8,5.6,4.3,7.8,7.1c3.9,5,6.2,10.7,7.4,16.8c0.3,1.4,0.5,2.8,0.8,4.4c0.1-0.3,0.2-0.5,0.3-0.7c1.1-6.5,3.2-12.6,6.1-18.5
		c3.2-6.5,6.5-12.9,9.8-19.4c0.8-1.5,1.6-3.1,2.4-4.5c0.5-0.8,1.1-1.6,1.8-2.3c1.2-1.2,2.8-1.1,4,0.1c0.7,0.7,1.3,1.6,1.7,2.5
		c1.4,2.8,2,5.9,2.2,9c0.6,9.1-1.5,17.6-5.2,25.8c-3.9,8.6-8.9,16.5-15.2,23.6C135.5,175,135.4,175.1,135.2,175.4z M128.7,178.1
		c-0.2-0.4-0.4-0.8-0.6-1.1c-3.3-5.1-8-7.6-14-7.9c-5.5-0.3-11,0-16.4,0.5c-1.2,0.1-2.1,0.6-2.7,1.6c-0.5,0.8-0.9,1.5-1.4,2.3
		c-0.6,1.1-1.6,1.7-2.9,1.7c-0.6,0-1.2,0-1.7-0.1c-1-0.2-2-0.5-2.9-0.7c-1.8-0.5-3.6-1.1-5.4-1.6c-1-0.3-1.7-0.1-2.4,0.7
		c-1,1.2-1.7,2.6-2.1,4.1c-1.4,4.7-2.7,9.4-4.1,14c-1.7,5.4-2.6,11-2.9,16.6c-0.3,6.8,1.6,12.9,5.3,18.5c0.8,1.2,1.9,2.1,2.9,3.2
		c0.2,0.2,0.5,0.3,0.8,0.5c-0.1-2.7,0.3-5.2,1.4-7.5c1.2-2.4,3-4.2,5.3-4.9c0.4-2.5,0.6-4.7,1-6.9c1.1-5.8,3.6-10.7,8.5-14.3
		c1.8-1.3,3.4-2.7,5.1-4.1c2.8-2.2,5-4.8,6.7-7.9c0.4-0.8,0.9-1.6,1.5-2.4c1.1-1.5,2.6-2.1,4.5-1.7c3.8,0.9,7.6,1.8,11.5,2.7
		c0.1,0,0.3,0,0.5,0.1C125.2,181.3,126.8,179.6,128.7,178.1z M140.9,255.9c0.2,0.1,0.3,0.2,0.4,0.2c2.4,0.7,4.6,0.4,6.6-1.1
		c1.7-1.3,3.1-2.9,4.2-4.8c2-3.5,3.6-7.3,4.6-11.2c0.6-2.3,0.5-4.6-0.4-6.9c-0.3-0.8-0.7-1.6-1-2.4c-0.5-1.4-0.2-2.5,1.1-3.3
		c0.8-0.5,1.7-0.8,2.6-1.1c1.1-0.4,2.2-0.7,3.2-1c0.8-0.2,1.3-0.8,1.4-1.7c0.1-0.9,0.3-1.9,0.3-2.8c0-2.8-0.2-5.6-0.2-8.4
		c0-3.5,0-6.9,0-10.4c0-3.9-0.9-7.6-2.6-11c-2.1-4.2-5.2-7.4-9.5-9.3c-1.8-0.8-3.7-1.2-5.7-0.9c-1.1,0.2-2.2,0.4-3.3,0.7
		c-1.4,0.4-2.8,0.2-4.1-0.5c-0.6-0.4-1.2-0.7-1.8-1.1c-1.1-0.8-2.2-0.9-3.4-0.4c-2.9,1.2-5.1,3.1-6.8,5.9c1.8,0.9,3.3,2.1,4.4,3.7
		c1.1,1.7,1.5,3.6,1.1,5.5c0.4,0.1,0.6,0.2,0.8,0.2c3,0.9,5.3,2.7,7.1,5.2c1.2,1.7,1.4,3.5,0.4,5.4c-0.4,0.8-0.9,1.5-1.3,2.2
		c-0.2,0.3-0.4,0.6-0.6,1.1c0.7,0.3,1.3,0.7,1.9,0.9c0.8,0.3,1.6,0.6,2.4,1c1.7,0.8,2.7,2.1,2.8,4.1c0,0.9,0.1,1.8,0.1,2.7
		c0.1,3,0.2,5.9,0.4,8.9c0.2,2.9-0.6,5.4-2.5,7.5c-0.2,0.3-0.5,0.5-0.6,0.7c0.5,1.4,1.1,2.6,1.5,3.9c0.6,1.7,0.4,3.4-0.5,5
		c-0.5,0.9-1.1,1.7-1.8,2.5c-0.3,0.4-0.4,0.7-0.4,1.1C141.9,249.3,141.8,252.6,140.9,255.9z M139.3,247c-0.4,0.1-0.6,0.2-0.8,0.3
		c-1.1,0.4-2.2,0.6-3.3,0.6c-1.8,0-3.5-0.5-5.2-1.2c-4.6-1.8-9.3-3.2-14.1-4c-2.8-0.5-5.6-1.5-8.1-2.8c-5-2.6-8.5-6.5-10.2-11.9
		c-0.2-0.7-0.5-1.1-1.4-1.2c-2.1-0.2-4.1-0.8-6-1.7c-2.1-1-3.7-2.6-4.5-4.8c-0.1-0.2-0.2-0.3-0.3-0.5c-1.3,0.7-2.3,1.6-3,2.8
		c-1.2,2.1-1.8,4.3-1.6,6.7c0.2,1.9,0.5,3.9,0.9,5.8c0.5,2.2,1.1,4.4,1.8,6.5c0.5,1.8,1.8,2.8,3.6,3.1c1,0.2,1.9,0.3,2.9,0.3
		c1.6-0.1,2.9,0.9,2.7,2.8c-0.1,1.2-0.2,2.4-0.4,3.6c-0.4,2.1,0.3,3.6,2,4.7c1.3,0.9,2.7,1.4,4.2,1.8c2.5,0.6,5,0.8,7.5,0.8
		c5.5,0,10.9,0.5,16.2,1.7c2.9,0.7,5.8,1,8.8,0.5c4-0.6,6.6-2.6,7.6-6.6C139.2,252,139.3,249.6,139.3,247z M119.2,330.7
		c0.5-0.7,0.9-1.1,1.2-1.7c0.6-1.3,1.3-2.5,1.7-3.8c2.6-6.9,2.9-14.1,1.6-21.3c-2.6-14.4-8.2-27.6-16.9-39.5
		c-0.2-0.2-0.3-0.4-0.5-0.6c-0.1,0.2-0.2,0.2-0.2,0.3c-1.8,6.9-2.5,13.8-2.5,20.9c0,4.8,0.5,9.6,1.3,14.3c1,5.8,2.5,11.4,5.1,16.7
		c2.4,4.8,5.4,9.3,8.4,13.7C118.5,330,118.8,330.3,119.2,330.7z M102.1,265c-6.3,2.8-12.4,5.8-18.2,9.5c-6.1,3.9-11.4,8.7-15.8,14.4
		c-2.9,3.8-5.4,7.7-7.2,12.1c-2,4.6-2.8,9.5-2.8,14.4c0,2,0.1,4,0.8,5.9c0.2,0.5,0.4,1,0.7,1.6c0.5-0.4,0.8-0.7,1.1-1.1
		c2.9-3,5.7-6,8.6-8.9c13.3-13.8,24.2-29.3,32.3-46.7C101.8,265.8,102,265.4,102.1,265z M130.2,176.2c1.3-1.3,2.6-2.4,3.7-3.6
		c7.2-8.5,12.8-17.9,16.5-28.4c2.2-6.2,3-12.6,2.5-19.2c-0.2-2.6-0.7-5.1-1.9-7.4c-0.3-0.5-0.5-1.1-1.2-1.6
		c-0.6,0.9-1.2,1.8-1.7,2.7c-2.1,3.9-4.2,7.8-6.3,11.7c-3.1,5.9-6.1,11.8-8.4,18.1c-2.8,7.8-4.4,15.8-3.6,24.2
		C129.9,173.8,130.1,175,130.2,176.2z M103.6,211.6c0-0.1,0.1-0.3,0.1-0.4c0.3-2.7,1.5-5,3-7.1c1.3-1.8,2.5-3.7,3.7-5.5
		c0.9-1.3,1.7-1.6,3.2-1.3c1.1,0.2,2.3,0.5,3.4,0.8c0.5,0.1,0.9,0.1,1.3-0.2c3-2.4,6.6-3.5,10.3-4.1c0.5-0.1,1.1-0.1,1.6-0.2
		c0.1-1.8-0.5-3.3-1.7-4.5c-1.3-1.4-2.9-2.2-4.6-2.8c-4-1.4-8.2-2.1-12.3-3c-0.8-0.2-1.5,0.1-1.9,0.8c-0.4,0.7-0.8,1.3-1.2,2
		c-1.8,3.5-4.3,6.4-7.4,8.8c-2,1.6-4,3.2-6,4.8c-3,2.4-4.9,5.4-5.9,9c-0.8,2.8-1.4,5.6-1.5,8.5c0,1.9,0.7,3.6,2.2,4.8
		c2,1.5,4.4,1.9,6.9,2.6c-0.2-2.7,0.2-5.2,1.5-7.4C99.6,214.9,101,212.8,103.6,211.6z M103.6,214.1c-0.2,0.1-0.4,0.3-0.5,0.4
		c-2.9,3-4.3,6.6-3.5,10.8c1,5.4,4,9.4,8.8,12c2.2,1.2,4.6,2.1,7.1,2.6c5.5,1,10.9,2.5,16.1,4.6c0.7,0.3,1.5,0.5,2.2,0.6
		c3.2,0.7,6.7-1.1,7.9-4.1c0.3-0.7,0.5-1.5,0.4-2.3c-0.1-1.4-0.5-2.7-0.7-4.2c-1.7,0.9-3.4,1.5-5.2,1.1c-1.4-0.3-2.8-0.8-4.2-1.3
		c-0.6-0.2-1.1-0.3-1.7-0.1c-1.8,0.5-3.6,1-5.4,1.4c-5.8,1.3-11.2,0.6-16.2-2.7c-1.7-1.1-3.1-2.4-4.2-4c-1.5-2.3-2.1-4.7-1.2-7.3
		c0.3-1,0.8-2,1.2-3c0.1-0.3,0.3-0.7,0.2-1C104.4,216.4,104,215.3,103.6,214.1z M132.9,231.7c1.2,0.7,2.8,1.3,3.8,1.3
		c3.1,0.2,6.2-2.5,6.4-5.7c0.1-1,0-2.1-0.1-3.1c-0.3-2.6-0.5-5.2-0.2-7.8c0.1-0.7,0-1.5,0-2.2c0-1-0.5-1.8-1.4-2.2
		c-0.5-0.2-1.1-0.4-1.6-0.6c-0.6-0.2-1.2-0.4-1.7-0.7c-2.3-1.2-2.7-2.9-1.2-5.1c0.4-0.6,0.8-1.2,1.2-1.9c0.6-1.1,0.5-2.1-0.2-3.1
		c-1.1-1.6-2.4-2.9-4.2-3.6c-0.9-0.4-1.8-0.7-2.8-0.8c-3.8-0.3-7.4,0.9-10.7,2.7c0,0,0,0.1,0,0.2c1.3,0.9,2.5,1.9,3.8,2.8
		c0.2,0.2,0.6,0.3,0.8,0.4c1.5,0.7,3,1.3,4.4,2.1c6.3,3.5,9.4,9.8,8,17c-0.5,2.7-1.5,5.3-2.8,7.7
		C133.8,229.9,133.4,230.8,132.9,231.7z M107.7,132.2c0.1,0.7,0.2,1,0.3,1.4c1.2,4.2,2.4,8.4,3.6,12.5c2.5,8.2,6.5,15.6,11.9,22.3
		c0.8,1,1.7,1.8,2.8,2.5c-0.2-1.7-0.4-3.2-0.5-4.7c-0.4-3.7-0.9-7.4-1.7-11.1c-1.3-5.9-3.7-11.2-7.4-15.9c-1.8-2.3-4-4.3-6.5-5.8
		C109.5,133,108.7,132.7,107.7,132.2z M112.9,221.6c0.6-1.5,1.2-2.9,1.7-4.4c0.1-0.3,0-0.6,0-0.9c-0.4-2.9,0.1-5.6,1.5-8.1
		c1.1-2,2.7-3.4,4.9-4.1c0.4-0.1,0.7-0.2,1.1-0.4c-2.2-2.4-5.7-4-9.4-4.1c-1.6,2.4-3.2,4.7-4.7,7.1c-0.6,1-1.1,2.2-1.4,3.4
		c-0.8,2.9-0.3,5.6,1.6,7.9C109.5,219.6,111.2,220.6,112.9,221.6z M106.3,220c-1.2,2.8-1.3,5.3,0.6,7.8c1,1.3,2.3,2.4,3.7,3.3
		c5.6,3.4,11.4,3.1,17.4,1.2c-0.7-0.5-1.3-1-1.9-1.5c-0.5-0.4-0.9-0.4-1.5-0.2c-1.5,0.7-3.1,0.9-4.7,0.5c-3.4-0.7-5.6-2.8-6.7-6
		c-0.2-0.6-0.5-1-1.1-1.2c-1.9-0.7-3.6-1.7-5-3.1C106.9,220.5,106.6,220.3,106.3,220z M130.2,208c-0.1,0.2-0.2,0.2-0.2,0.3
		c0,2.1-0.3,4.1-1.1,6c-0.2,0.4,0,0.7,0.2,1c0.5,0.8,0.9,1.6,0.9,2.6c0.1,3.3-0.5,6.5-2,9.5c-0.2,0.4-0.5,0.8-0.7,1.2
		c1.1,0.7,2.1,1.3,3.1,2c0.6-1.3,1.2-2.4,1.8-3.5c1.2-2.4,2-5,2.3-7.7C135,214.9,133.7,211.1,130.2,208z M127.3,213.6
		c0.3-1.9,0.6-3.7,0.3-5.4c-0.2-1.8-1.3-3-3-3.4c-0.2-0.1-0.5-0.1-0.7,0c-1,0.4-1.9,0.8-2.9,1.3c-2.4,1.3-3.5,3.4-4,6.1
		C120.5,212.5,124,211.9,127.3,213.6z M116.9,214.2c-0.4,2.9,1.4,5.7,4.2,6.6c1.9,0.6,3.8,1,5.8,1.5c0.4-1.4,0.6-2.7,0.5-4.1
		c0-1.3-0.6-2.2-1.8-2.7c-0.8-0.3-1.6-0.6-2.5-0.7C121.2,214.6,119.1,214.4,116.9,214.2z M116,219.9c-2.3,4.1,1.4,8.6,4.8,8.8
		c1.7,0.1,3.2-0.2,4.3-1.6c0.6-0.8,0.9-1.7,1.4-2.6c-1.5-0.3-2.9-0.7-4.3-1c-2.4-0.5-4.6-1.6-6.1-3.6C116.2,220,116.1,220,116,219.9
		z"/>
	<g>
		<path class="st1" d="M257.7,229.3c-0.4-1.5-0.7-3-1-4.5c-1.4-6.3-2.5-12.6-3.2-19c-0.5-4.7-1-9.4-1.3-14.2
			c-0.2-3.1-0.3-6.3-0.3-9.5c0-6.6,0-13.2,0.1-19.9c0.1-4.7,0.3-9.4,0.7-14.1c0.2-2.7,0.8-5.3,1.3-7.9c0.1-0.5,0.1-1-0.1-1.6
			c-0.4-1.4-0.8-2.9-1-4.3c-0.4-3.5-0.3-7.1,0-10.6c0.6-7.1,2.2-14.1,3.9-21c0.2-0.7,0.4-1.4,0.8-2.1c1-2,2.8-2.5,4.7-1.3
			c0.7,0.4,1.3,1,1.8,1.6c2.8,3.5,4.5,7.5,4.9,12c0.4,3.6-0.3,7.1-1.6,10.5c-1.8,4.6-4.4,8.7-7.9,12.3c-0.3,0.3-0.6,0.7-1,1
			c-1.4,1-1.9,2.5-2.1,4.2c-0.7,4.9-1.1,9.8-1.2,14.8c-0.1,7.5-0.4,14.9-0.3,22.4c0,5.9,0.3,11.8,0.7,17.6
			c0.7,10.1,2.1,20.2,4.4,30.1c0.1,0.2,0.1,0.5,0.2,0.7c0,0.1,0.1,0.1,0.2,0.3c0-0.5,0.1-0.9,0.1-1.3c0-24.5,7.4-46.9,20.5-67.4
			c0.9-1.4,1.9-2.8,2.8-4.3c0.2-0.3,0.3-0.7,0.4-1.1c1-5.9,3.2-11.2,6.8-15.9c2.9-3.8,6.1-7.3,9.5-10.6c0.7-0.7,1.4-1.3,2.2-1.8
			c2.2-1.4,4.4-1,5.9,1.1c1.4,2,2,4.2,2.1,6.6c0.3,4.8-1.3,8.9-4.5,12.5c-3.8,4.2-8.5,7.1-13.7,9.1c-2.2,0.9-4.4,1.7-6.5,2.5
			c-0.3,0.1-0.6,0.3-0.8,0.6c-5.5,8.7-10.7,17.5-14.2,27.3c-0.1,0.4-0.2,0.7-0.4,1.3c0.3-0.2,0.5-0.2,0.7-0.3c4.3-3.1,9-5,14.1-6.3
			c0.8-0.2,1.2-0.6,1.8-1.2c0.9-1.1,1.9-2.1,3-2.9c4.1-3.2,8.7-5.2,13.7-6.5c4.5-1.1,9-1.9,13.6-2.2c0.6,0,1.2-0.1,1.9,0
			c1.8,0.1,3,1,3.6,2.6c0.6,1.7,0.7,3.5,0.3,5.2c-1.1,4.4-3.5,7.9-7.4,10.2c-5.7,3.3-11.8,4.3-18.2,2.7c-4.3-1.1-7-2.7-10.1-6.2
			c-0.6,0.2-1.3,0.5-2,0.8c-2.3,0.9-4.6,1.7-6.9,2.6c-3.1,1.2-6,2.8-8.5,5.1c-0.7,0.6-1.1,1.3-1.4,2.2c-2.1,6.7-3.8,13.5-4.6,20.5
			c-0.4,3.5-0.7,7.1-0.8,10.6c-0.2,4.7-0.1,9.4-0.2,14.1c0,0.4,0,0.7,0,1c-0.2,1.3-1.5,2-2.6,1.2c-0.5-0.3-0.9-0.8-1.2-1.4
			c-2.5-3.9-5-7.8-7.4-11.8c-4.7-8-8.6-16.4-11.5-25.2c-0.1-0.4-0.4-0.8-0.7-1.2c-3.1-3.5-6.9-4.3-11.2-2.9
			c-4.1,1.3-7.7,3.6-10.9,6.6c-0.8,0.8-1.5,1.5-2.3,2.3c-0.3,0.3-0.5,0.6-0.3,1c1,3.6,0.7,7.1-0.2,10.6c-1.1,4.4-2.9,8.5-5.8,12.1
			c-3.5,4.3-8.1,6.4-13.6,6.2c-2.5-0.1-4.9-0.7-7.2-1.8c-0.6-0.3-1.1-0.6-1.6-1c-1.4-1.1-1.8-2.6-1-4.3c1.1-2.3,2.2-4.5,3.4-6.8
			c1.1-2.1,2.6-4.1,4.3-5.8c3.8-4.1,8.2-7.5,13.1-10.2c2.2-1.2,4.4-2.1,7-1.9c0.5,0,0.7-0.3,1-0.6c3.5-3.9,7.7-6.7,12.6-8.5
			c1.6-0.6,3.3-1,5.3-1c-0.3-0.3-0.5-0.5-0.7-0.6c-5.7-3.2-11.5-6.2-17.8-8.1c-0.6-0.2-0.9-0.1-1.3,0.4c-0.5,0.5-1.1,1.1-1.7,1.4
			c-5.2,2.5-10.6,3.4-16.2,2c-3.5-0.9-6.7-2.6-9.5-4.8c-2.2-1.7-4.3-3.4-6.5-5.2c-1.6-1.3-1.6-3,0-4.4c0.7-0.6,1.5-1.2,2.4-1.6
			c6.1-3.1,12.5-4.1,19.2-2.1c4.9,1.4,8.7,4.3,11.3,8.6c0.6,0.9,1.1,1.8,1.6,2.7c0.2,0.4,0.5,0.7,0.9,0.8c5.2,1.4,10,3.8,14.8,6.3
			c3.4,1.8,6.7,3.8,9.6,6.4c0.1,0,0.1,0,0.3,0.1c-0.1-0.4-0.1-0.7-0.2-1c-2.2-7.5-3.8-15.2-4.9-22.9c-0.3-1.8-0.8-3.5-1.6-5.2
			c-1.8-3.8-3.9-7.4-6-11c-0.7-1.1-1.4-2-2.6-2.7c-3.3-2.1-6-4.8-8.1-8.1c-2.5-3.8-4.4-7.8-5.8-12.1c-1.4-4.3-2.8-8.6-4.1-12.9
			c-0.2-0.7-0.4-1.5-0.5-2.3c-0.3-2.1,1-3.6,3-3.5c1,0,2,0.3,3,0.6c2.6,0.9,4.9,2.3,7,4.1c5,4.3,8.5,9.4,9.9,16
			c1.2,5.6,0.7,11.1-0.9,16.6c-0.2,0.7-0.2,1.3,0.3,1.9c1.6,2.7,3.1,5.4,4.7,8.1c0.2,0.3,0.4,0.7,0.7,1.3c0-0.5,0.1-0.8,0.1-1.1
			c-0.1-2.8-0.4-5.7-0.4-8.5c-0.1-4.9-0.3-9.7-0.1-14.6c0.2-8.4,1-16.7,3.2-24.8c0.3-1,0.7-2.1,0.9-3.1c0.1-0.4,0.1-0.9,0-1.2
			c-1.2-2.7-1.7-5.5-2.1-8.3c-1.1-7.7,0.2-15.1,2.7-22.4c1.2-3.5,2.5-6.9,3.8-10.3c0.2-0.5,0.4-1,0.7-1.4c0.9-1.3,2.3-1.6,3.6-0.7
			c0.7,0.5,1.4,1.1,1.9,1.9c1.7,2.3,2.8,4.9,3.5,7.7c2.4,9.8,1.2,19.1-4.2,27.7c-1.8,2.9-4.2,5.3-7.1,7.1c-0.5,0.3-0.7,0.6-0.8,1.2
			c-1.3,6.5-2.3,13.1-2.8,19.7c-0.4,5.9-0.5,11.7-0.4,17.6c0.1,2.7,0.1,5.4,0.3,8.2c0.4,7.1,1.2,14.2,2.5,21.2
			c1.9,10.2,4.7,20.1,8.6,29.6c3,7.4,6.8,14.4,11,21.2c0.1,0.2,0.3,0.5,0.5,0.7C257.5,229.2,257.6,229.3,257.7,229.3z M211.8,205.7
			c-0.3,0.1-0.7,0.1-1,0.2c-1.1,0.4-2.2,0.8-3.2,1.4c-4.7,2.5-8.8,5.8-12.5,9.7c-3.3,3.4-5.3,7.6-7.3,11.8c-0.4,0.7-0.2,1,0.4,1.5
			c0.2,0.1,0.4,0.3,0.6,0.4c2.7,1.4,5.6,1.9,8.6,1.5c4-0.5,7.1-2.5,9.5-5.7c2.5-3.4,4.1-7.2,5-11.2
			C212.7,212,212.7,208.9,211.8,205.7z M289.3,178.9c0.3,0.3,0.6,0.7,0.9,1c2.4,2.4,5.4,3.6,8.7,4.3c5.6,1.1,10.8,0.2,15.6-2.7
			c3-1.8,4.9-4.5,5.7-7.9c0.3-1.1,0.2-2.2,0.1-3.3c-0.1-1-0.6-1.3-1.6-1.3c-0.6,0-1.2,0-1.8,0c-4.8,0.3-9.5,1.1-14.1,2.4
			c-4.4,1.3-8.6,3.2-12.3,6C289.9,177.6,289.4,178.1,289.3,178.9z M243.1,67.7c-0.3,0.6-0.5,0.9-0.6,1.3c-1.2,3.1-2.4,6.2-3.5,9.4
			c-2.7,7.7-3.8,15.6-2.4,23.7c0.3,1.6,0.6,3.3,0.9,5c0.4-0.3,0.7-0.4,0.9-0.6c2.2-1.6,3.9-3.8,5.3-6.1c4.2-7.2,5.3-14.9,3.7-23.1
			c-0.5-2.8-1.5-5.4-3-7.8C244,68.9,243.6,68.4,243.1,67.7z M207,115.9c0.1,0.9,0.2,1.5,0.3,2.1c1.3,5.3,2.8,10.5,4.8,15.6
			c2.4,6.2,5.7,11.7,10.8,16.1c0.2,0.2,0.5,0.4,0.7,0.5c0.1-0.1,0.1-0.2,0.2-0.3c1.4-4.8,1.9-9.7,0.9-14.7
			c-1.6-7.5-5.8-13.1-12.2-17.2c-0.9-0.6-1.9-1-2.9-1.4C208.9,116.3,208.1,116.2,207,115.9z M210.9,183.4c-1.1-1.7-2.1-3.4-3.2-4.8
			c-1-1.2-2.1-2.3-3.3-3.2c-2.7-2-5.8-3-9.1-3.3c-5-0.5-9.7,0.5-14.1,2.9c-0.5,0.3-1,0.7-1.6,1c0.2,0.2,0.3,0.4,0.4,0.5
			c2.1,1.8,4.3,3.7,6.5,5.4c2.1,1.6,4.5,2.8,7,3.7c1.2,0.4,2.4,0.7,3.6,0.8c4.1,0.5,8-0.3,11.9-1.9
			C209.6,184.2,210.2,183.9,210.9,183.4z M286.3,153c0.3-0.1,0.5-0.1,0.6-0.1c1.8-0.7,3.5-1.4,5.3-2.1c2.6-1.1,5.1-2.4,7.4-4.1
			c2.2-1.7,4.2-3.6,5.8-5.9c2.4-3.5,2.7-7.2,1.6-11.2c-0.2-0.8-0.7-1.5-1.1-2.2c-0.5-0.7-0.9-0.8-1.6-0.3c-0.7,0.5-1.4,1-2,1.6
			c-2.5,2.5-4.9,5.1-7.3,7.7c-3.6,4-6.3,8.7-7.9,13.9C286.8,151.1,286.6,152,286.3,153z M260.5,101.9c-1,1.4-2.4,6.4-3.8,14.3
			c-1.2,6.4-1.9,12.9-1.2,19.3c0.6-0.5,1.3-1,1.9-1.6c3.2-3.3,5.6-7.1,7.2-11.3c1.2-3.1,1.8-6.2,1.3-9.5c-0.5-3.6-1.8-6.9-4.1-9.8
			C261.5,102.7,260.9,102.4,260.5,101.9z"/>
		<path class="st1" d="M242.2,122.1c-2,0-3.7-1.7-3.7-3.7c0-2,1.6-3.6,3.7-3.6c2.1,0,3.9,1.7,3.9,3.8
			C246,120.6,244.3,122.1,242.2,122.1z M242.2,117.3c-0.8,0-1.3,0.4-1.2,1.1c0,0.7,0.6,1.3,1.3,1.3c0.7,0,1.3-0.6,1.3-1.2
			C243.5,117.8,243,117.3,242.2,117.3z"/>
		<path class="st1" d="M277.9,191.5c1.9,0,3.5,1.8,3.5,3.7c-0.1,1.9-1.7,3.3-3.5,3.3c-1.7-0.1-3.1-1.8-3.1-3.9
			C274.8,192.9,276.3,191.4,277.9,191.5z M277.6,193.8c-0.4,0.1-0.5,0.4-0.4,0.8c0,0.8,0.4,1.3,0.9,1.3c0.5,0,0.9-0.5,0.8-1
			C278.8,194.4,278.2,193.8,277.6,193.8z"/>
		<path class="st1" d="M310.8,152.9c-0.1,1.5-1.3,2.8-2.7,2.9c-1.5,0.1-2.8-1.2-2.6-2.9c0-0.4,0.2-0.8,0.3-1.1c0.3-1,0.9-1.6,2-1.7
			c1.1-0.1,2,0.3,2.5,1.3C310.5,151.9,310.7,152.4,310.8,152.9z"/>
		<path class="st1" d="M223.9,180.6c-2,0-3.4-2.3-2.5-4.1c0.5-0.9,1.3-1.3,2.3-1.3c1.5,0.1,2.8,1.3,3,2.8
			C226.8,179.4,225.6,180.6,223.9,180.6z M224.5,178.1c-0.1-0.5-0.3-0.9-0.9-0.8c-0.1,0-0.3,0.5-0.2,0.6
			C223.6,178.6,224,178.5,224.5,178.1z"/>
		<path class="st1" d="M211.2,236.6c-1.4,0-2.7-1.2-2.7-2.6c0-1.2,1.2-2.4,2.5-2.4c1.4,0,2.8,1.4,2.8,2.8
			C213.8,235.6,212.6,236.6,211.2,236.6z"/>
		<path class="st1" d="M264,145.2c0,1.1-0.9,2-2,2c-1.1,0-2-1-2-2.1c0-1.1,0.9-1.9,2-1.9C263.1,143.1,264,144.1,264,145.2z"/>
		<path class="st1" d="M258.4,87.1c0,0.8-0.9,1.6-1.8,1.6c-1.1,0-2.2-1-2.2-2c0-1,0.9-2,1.9-2C257.4,84.7,258.4,85.8,258.4,87.1z"/>
	</g>
</g>
</svg>
